<svg id="visual" viewBox="0 0 900 600" width="900" height="600" xmlns="http://www.w3.org/2000/svg" xmlns:xlink="http://www.w3.org/1999/xlink" version="1.1"><rect x="0" y="0" width="900" height="600" fill="#e6edf7"></rect><path d="M0 516L37.5 518C75 520 150 524 225 518.7C300 513.3 375 498.7 450 493.7C525 488.7 600 493.3 675 491C750 488.7 825 479.3 862.5 474.7L900 470L900 601L862.5 601C825 601 750 601 675 601C600 601 525 601 450 601C375 601 300 601 225 601C150 601 75 601 37.5 601L0 601Z" fill="#FFF" stroke-linecap="round" stroke-linejoin="miter"></path></svg>